<?xml version="1.0" encoding="utf-8"?>
<!-- Generator: Adobe Illustrator 26.0.1, SVG Export Plug-In . SVG Version: 6.00 Build 0)  -->
<svg version="1.1" id="Layer_1" xmlns="http://www.w3.org/2000/svg" xmlns:xlink="http://www.w3.org/1999/xlink" x="0px" y="0px"
	 viewBox="0 0 201.8 54.5" style="enable-background:new 0 0 201.8 54.5;" xml:space="preserve">
<style type="text/css">
	.st0{fill:#C0A971;}
</style>
<path d="M81.9,32.3c0,3.7-2.7,5.8-8.2,5.8h-10V16.3h9.4c4.9,0,7.7,2.1,7.7,5.6c0,2.5-1.3,4.1-3.3,5C80.2,27.5,81.9,29.4,81.9,32.3z
	 M66,18.2v7.9h6.9c3.5,0,5.5-1.3,5.5-4s-2-4-5.5-4H66V18.2z M79.6,32.1c0-2.8-2.1-4.1-5.9-4.1H66v8.2h7.7
	C77.5,36.2,79.6,35,79.6,32.1z M100.8,36.1v2H85.4V16.3h14.9v2H87.7v7.8H99v2H87.7v8.1L100.8,36.1L100.8,36.1z M110.5,18.3h-7.7v-2
	h17.6v2h-7.7v19.8h-2.3L110.5,18.3L110.5,18.3z M142.4,38.1l-0.1-11.6l-5.6,9.4H134l-5.6-9.1V38h-5.7V16.3h5.1l7.7,12.6l7.5-12.6
	h5.1l0.1,21.8H142.4L142.4,38.1z M167,26.8h5.4v9c-2.5,1.8-6,2.8-9.2,2.8c-6.9,0-12-4.7-12-11.3S156.3,16,163.3,16
	c4.1,0,7.4,1.4,9.5,4l-3.9,3.5c-1.5-1.6-3.2-2.4-5.3-2.4c-3.7,0-6.2,2.5-6.2,6.2s2.5,6.2,6.2,6.2c1.2,0,2.2-0.2,3.3-0.7L167,26.8
	L167,26.8z M196.1,38.1L196,26.6l-5.6,9.4h-2.7l-5.6-9.1v11.2h-5.7V16.3h5.1l7.7,12.6l7.5-12.6h5.1v21.8H196.1z"/>
<g>
	<path class="st0" d="M2.8,22.4c0,4.8,0.8,9.3,3.2,13v-3.2c0-4,3.2-6.8,6.5-8.6C9.1,24.7,5.4,23.9,2.8,22.4 M5.6,19H4.5
		c-0.2-0.6,1.5-1.7,2-0.9L5.6,19z M2.2,18.5c0.9,0.6,2.2,0.9,3.5,0.8c1.1,0.8,2.6-1.4,4.2-1.4c2.3-0.3,5.2-0.6,6.8,1.4l-0.8-1.5
		c-2.2-0.2-4-0.9-5.7-1.9C6.8,14.4,5.1,19.3,2.2,18.5 M0,10.6c1.1,0.3,2.4,0.6,3.4,0.6c2.3-0.9,2.9-2.8,2-5.2C4,4,2,2.9,0,2.5V10.6z
		 M15.6,54.5c0.3-0.3,0.8-0.8,1.1-1.2c6.2-8-5.9-12.7-5.6-20.4c0.3-3.1,2-5.4,4-7.9L15,24.8c-1.9,1.9-2.6,3.1-3.9,4.9
		c-3.7,7.6,1.5,18.4-3.9,24.8H15.6z M40.6,27.3c0,11.1-5.2,20.8-13.4,27.2h27.2V0H27.2C35.3,6.1,40.6,16.2,40.6,27.3"/>
	<path class="st0" d="M0,54.5h4.8l1.1-1.1c6.3-8.6-1.2-14.7-5.9-21.5C0,31.9,0,54.5,0,54.5z M13,0H0v1.1c1.2,0.2,2.8,0.6,3.9,1.1
		c2.6,1.5,4.6,4,4.3,7.1l5.7-0.6c0.8-1.9,1.1-4.8,0.3-6.3C13.9,1.4,13.4,0.4,13,0 M15.6,0c1.2,1.7,1.2,4,1.4,5.7
		c2.3-1.7,5.1-2.8,8-2c-2-1.5-3.4-2.8-5.9-3.7H15.6z M27,27.8L26.5,29l-0.6-1.5c-1.4,0.3-2.8,0.8-3.5,2.3c-0.2,0.5,0.2,1.2-0.3,1.5
		c-0.9-0.2-0.5-1.7-0.5-2.6c1.1-1.1,4-3.4,5.1-2.5C27,26.4,27.2,27.2,27,27.8 M20.8,38.9c-0.8-0.6-0.5-1.7-0.5-2.5l0.5-0.5
		c0.8,2.5,2.8-0.5,4.3-0.2c0.8-0.3,0.5-1.4,1.2-1.2C27.6,38.4,23,37.7,20.8,38.9 M31.9,39.4c0.6-5.1,0.2-10.5-3.5-14
		c-0.8-0.2-1.9,0.3-2.5-0.5c-1.7,1.5-3.9,2.2-5.4,3.9c-1.7,0.5-3.4-0.6-5.1-0.9v-0.6c-2.3,1.5-1.7,4.6-2.2,6.9
		c0.6,2.6,3.5,3.7,5.4,5.2c2.9,0.5,5.6-0.8,8-1.7c0.5,0.5,1.1,0.8,0.8,1.4c-2,2.8-4.9,4-8.3,3.7c2,3.9,0.6,8.3-1.5,11.7h2
		C25.8,51.7,31.5,47.4,31.9,39.4"/>
	<path class="st0" d="M36.4,18.5c-1.7-5.9-6.9-13.7-13.9-13.3c-2.6,0.2-5.2,2.2-6.2,3.7c1.9,1.1,3.9,2.6,5.6,4.2
		c-0.2,0.6,0.3,1.4-0.5,1.7c-0.9-0.8-1.7-2.6-2.9-2c0.9,2,3.4,2.2,5.2,2.6c0.8,0.8,0.5,2,2,1.4c0.8,0.2,1.1,1.1,1.2,1.7
		c-1.2,2.3-4.6,0.8-6.5,1.2c1.5,0.6,3.2,0.8,4.6,1.7c1.4,0.9,1.9-1.2,2.5-2c2.5,0.6,1.1,3.2,2.2,4.6c5.2,5.4,4.2,15,1.5,21.1
		C38.6,38.9,38,24.4,36.4,18.5"/>
</g>
</svg>
