<?xml version="1.0" encoding="utf-8"?>
<!-- Generator: Adobe Illustrator 25.4.1, SVG Export Plug-In . SVG Version: 6.00 Build 0)  -->
<svg version="1.1" id="Layer_1" xmlns="http://www.w3.org/2000/svg" xmlns:xlink="http://www.w3.org/1999/xlink" x="0px" y="0px"
	 viewBox="0 0 435 100" style="enable-background:new 0 0 435 100;" xml:space="preserve">
<style type="text/css">
	.st0{fill:#0A3231;}
	.st1{fill:#BB9D5E;}
	.st2{fill:url(#SVGID_1_);}
</style>
<path class="st0" d="M300.2156,32.9163c-0.1577-0.3681-0.2361-0.7525-0.2361-1.1538c0-0.4013,0.0785-0.7857,0.2361-1.1538
	c0.1576-0.3681,0.3689-0.6848,0.6344-0.9504c0.2655-0.2656,0.5827-0.4773,0.9503-0.635s0.7524-0.2366,1.1532-0.2366
	c0.4008,0,0.7856,0.0789,1.1533,0.2366s0.6848,0.3694,0.9503,0.635c0.2655,0.2656,0.4767,0.5823,0.6344,0.9504
	c0.1577,0.3681,0.2361,0.7525,0.2361,1.1538c0,0.4013-0.0785,0.7857-0.2361,1.1538c-0.1576,0.3681-0.3689,0.6848-0.6344,0.9504
	c-0.2655,0.2656-0.5827,0.4773-0.9503,0.635s-0.7524,0.2366-1.1533,0.2366c-0.4008,0-0.7856-0.0789-1.1532-0.2366
	s-0.6848-0.3694-0.9503-0.635C300.5845,33.6011,300.3732,33.2844,300.2156,32.9163z M300.5768,31.7625
	c0,0.4316,0.1053,0.8301,0.3172,1.1953c0.2113,0.3652,0.4997,0.6545,0.8648,0.8674c0.3651,0.2129,0.7633,0.3196,1.1947,0.3196
	c0.4315,0,0.8297-0.1066,1.1948-0.3196c0.3651-0.2129,0.6541-0.5022,0.8667-0.8674c0.2132-0.3652,0.3198-0.7637,0.3198-1.1953
	c0-0.4316-0.1066-0.8301-0.3198-1.1953c-0.2125-0.3652-0.5016-0.6535-0.8667-0.8655c-0.3651-0.2113-0.7633-0.3173-1.1948-0.3173
	c-0.3235,0-0.6318,0.0629-0.9254,0.189c-0.2929,0.1258-0.545,0.2944-0.7569,0.5063c-0.2112,0.2113-0.3804,0.4639-0.5061,0.7573
	C300.6393,31.1304,300.5768,31.4388,300.5768,31.7625z M302.7416,32.0115h-0.1946v1.3738h-0.7384v-3.2539h1.1532
	c0.3593,0,0.6318,0.0843,0.8176,0.2532c0.2157,0.188,0.3229,0.4329,0.3229,0.7346c0,0.3292-0.1391,0.5782-0.4187,0.7471
	c-0.0415,0.0303-0.1091,0.061-0.2029,0.0913l0.979,1.4277h-0.8093L302.7416,32.0115z M302.547,31.4056h0.4397
	c0.1551,0,0.2598-0.0361,0.3153-0.1079c0.0389-0.0469,0.0581-0.1066,0.0581-0.1785c0-0.0801-0.0191-0.144-0.0581-0.1909
	c-0.0664-0.0776-0.1717-0.1162-0.3153-0.1162h-0.4397V31.4056z"/>
<path class="st0" d="M37.3269,3.3796h28.2975c9.3843,0,14.0749,0,19.1258,1.5972c5.5145,2.009,9.8584,6.3542,11.8649,11.8713
	c1.5972,5.0548,1.5972,9.7477,1.5972,19.1357v28.3088c0,9.3887,0,14.0816-1.5972,19.1349
	c-2.0065,5.5179-6.3504,9.8631-11.8649,11.8713c-5.0509,1.598-9.7415,1.598-19.1258,1.598H37.3269
	c-9.3835,0-14.0734,0-19.1243-1.598c-5.5152-2.0082-9.8584-6.3534-11.8649-11.8713c-1.598-5.0533-1.598-9.7462-1.598-19.1349
	V35.9838c0-9.388,0-14.0808,1.598-19.1357c2.0065-5.5171,6.3496-9.8623,11.8649-11.8713
	C23.2536,3.3796,27.9434,3.3796,37.3269,3.3796"/>
<path class="st1" d="M66.0943,100.1379H36.8569c-9.8545,0-14.801,0-20.2678-1.7291l-0.0686-0.0231
	c-6.1826-2.251-11.0187-7.09-13.2679-13.2755l-0.0234-0.068C1.5,79.5725,1.5,74.6233,1.5,64.7624V35.5138
	c0-9.8602,0-14.8091,1.7293-20.2804l0.0234-0.0683c2.2492-6.1842,7.085-11.0226,13.2676-13.2749l0.0689-0.0234
	c5.4668-1.7288,10.4133-1.7288,20.2678-1.7288h29.2373c9.8558,0,14.8026,0,20.2694,1.7288l0.0689,0.0234
	c6.1829,2.2526,11.0187,7.091,13.2675,13.2749l0.0234,0.0686c1.7286,5.4711,1.7286,10.4203,1.7286,20.2801v29.2487
	c0,9.8608,0,14.8101-1.7286,20.2798l-0.0234,0.068c-2.2492,6.1855-7.0853,11.0239-13.2679,13.2755l-0.0686,0.0231
	C80.8969,100.1379,75.9501,100.1379,66.0943,100.1379z M17.6412,95.1993c4.9577,1.5609,9.7302,1.5609,19.2157,1.5609h29.2373
	c9.4869,0,14.2593,0,19.2174-1.5609c5.2149-1.9106,9.2953-5.9936,11.2039-11.2106c1.5605-4.9598,1.5605-9.7348,1.5605-19.2262
	V35.5138c0-9.4907,0-14.2658-1.5608-19.2275c-1.908-5.2157-5.9884-9.2984-11.2039-11.2096
	c-4.9577-1.5609-9.7302-1.5609-19.217-1.5609H36.8569c-9.4859,0-14.2576,0-19.2154,1.5609
	c-5.2152,1.9109-9.296,5.9936-11.2043,11.21c-1.5611,4.9618-1.5611,9.7365-1.5611,19.2272v29.2487
	c0,9.4914,0,14.2664,1.5611,19.2262C8.3459,89.2064,12.4263,93.2894,17.6412,95.1993z"/>
<linearGradient id="SVGID_1_" gradientUnits="userSpaceOnUse" x1="32.8685" y1="50.1381" x2="70.0836" y2="50.1381">
	<stop  offset="0.1895" style="stop-color:#BB9D5E"/>
	<stop  offset="0.4977" style="stop-color:#E1D4BA"/>
	<stop  offset="0.8235" style="stop-color:#BB9D5E"/>
</linearGradient>
<path class="st2" d="M49.5127,64.2702L49.5127,64.2702c-0.9703-0.3808-1.6249-1.0273-1.6249-1.7454
	c0-0.7089,0.6373-1.3489,1.5869-1.7316v-0.0001c0.0001,0,0.0002,0,0.0002,0c0.2575-0.1037,0.5431-0.1809,0.8401-0.2429
	c0.0701-0.0147,0.1391-0.0272,0.211-0.0393c0.3055-0.0514,0.6203-0.0878,0.9496-0.0878c0.0001,0,0.0001,0,0.0001,0h0.0001
	c0.3296,0,0.6446,0.0365,0.9503,0.0879c0.0716,0.0121,0.1403,0.0245,0.2101,0.0391c1.3931,0.2909,2.4281,1.0734,2.4281,1.9747
	c0,0.9054-1.0445,1.6903-2.4474,1.9778c-0.0689,0.0142-0.1363,0.0269-0.2069,0.0386c-0.3008,0.0497-0.6105,0.0848-0.9342,0.0848
	h-0.0001c0,0,0,0-0.0001,0c-0.3235,0-0.633-0.0352-0.9337-0.0848c-0.0705-0.0117-0.1381-0.0243-0.207-0.0386
	c-0.2898-0.0594-0.5685-0.1331-0.8212-0.2322C49.5134,64.2703,49.513,64.2703,49.5127,64.2702z M48.0756,53.8474
	c0.6509,1.5251,1.1092,3.3797,1.3059,5.4421c0.6363-0.2007,1.3405-0.3184,2.0943-0.3184c0.754,0,1.4584,0.1178,2.0948,0.3185
	c0.1967-2.0625,0.6552-3.9172,1.3061-5.4423c-1.1056,0.3221-2.2418,0.4905-3.4007,0.4905
	C50.3172,54.3378,49.1812,54.1695,48.0756,53.8474z M51.476,52.8859c5.5292,0,10.5029-4.251,13.9148-10.9871h0.082
	c0.1376-0.2755,0.2742-0.5526,0.4065-0.8362H37.0727c0.1323,0.2836,0.2689,0.5607,0.4065,0.8362h0.082
	C40.9732,48.6349,45.9468,52.8859,51.476,52.8859z M69.9235,24.7265c0.0887-1.1747,0.145-2.3671,0.1601-3.5774H32.8685
	c0.0152,1.2103,0.0715,2.4026,0.1601,3.5774H69.9235z M59.6109,30.7212L59.6109,30.7212c-1.2793,0-2.3197,1.0412-2.3197,2.3208
	c0,1.2798,1.0404,2.3211,2.3197,2.3211h0.0001c1.2792,0,2.3197-1.0412,2.3197-2.3211
	C61.9306,31.7625,60.8901,30.7212,59.6109,30.7212z M37.5264,33.042c0-1.2795-1.0404-2.3208-2.3197-2.3208h-0.0001
	c-0.144,0-0.2835,0.0172-0.4202,0.0425c-0.0434,0.008-0.085,0.0195-0.1276,0.0299c-0.0939,0.0231-0.1852,0.0512-0.2743,0.0854
	c-0.0437,0.0167-0.0872,0.0327-0.1297,0.0519c-0.0988,0.0449-0.1932,0.0967-0.2841,0.1545c-0.0228,0.0144-0.0477,0.0255-0.07,0.0408
	c-0.0001,0.0001-0.0001,0.0001-0.0002,0.0001v0.0001c-0.6111,0.4185-1.0136,1.1206-1.0136,1.9156
	c0,1.186,0.8968,2.1559,2.0459,2.2934c0.0909,0.0109,0.1801,0.0277,0.2738,0.0277h0.0001
	C36.486,35.3631,37.5264,34.3219,37.5264,33.042z M53.49,65.7899c-0.6145,0.1844-1.2935,0.2881-2.0143,0.2881
	c-0.7196,0-1.3976-0.1032-2.0114-0.287c-0.3794,3.5586-3.2761,6.7974-8.7923,9.8096h21.6082
	C56.772,72.5924,53.8761,69.3557,53.49,65.7899z M65.6353,77.0525H37.3168c-0.5718,0-1.0368,0.4652-1.0368,1.0373
	c0,0.5721,0.465,1.0373,1.0368,1.0373h28.3185c0.2859,0,0.5451-0.1163,0.7328-0.3041c0.1877-0.1878,0.3039-0.4472,0.3039-0.7332
	c0-0.2861-0.1162-0.5453-0.3039-0.7332C66.1805,77.1688,65.9213,77.0525,65.6353,77.0525z M51.4758,30.7212L51.4758,30.7212
	c-1.2793,0-2.3197,1.0412-2.3197,2.3208c0,1.2798,1.0404,2.3211,2.3197,2.3211h0.0001c1.2792,0,2.3197-1.0412,2.3197-2.3211
	C53.7955,31.7625,52.755,30.7212,51.4758,30.7212z M68.9788,31.084c-0.0899-0.057-0.1832-0.1083-0.2808-0.1527
	c-0.043-0.0195-0.087-0.0357-0.1314-0.0526c-0.0886-0.0339-0.1793-0.0619-0.2726-0.0848c-0.0428-0.0105-0.0847-0.0221-0.1284-0.0301
	c-0.1367-0.0253-0.276-0.0425-0.4199-0.0425c-0.0001,0-0.0001,0-0.0002,0h-0.0001c-1.2792,0-2.3197,1.0412-2.3197,2.3208
	c0,1.2798,1.0405,2.3211,2.3197,2.3211h0.0001c1.2792,0,2.3197-1.0412,2.3197-2.3211
	C70.0652,32.2168,69.6293,31.4956,68.9788,31.084z M67.5632,36.7966c-0.3223,0.9693-0.6691,1.9109-1.0446,2.8141H36.4335
	c-0.3755-0.9032-0.7223-1.8447-1.0446-2.8141c1.9933-0.0974,3.5887-1.7366,3.5887-3.7546c0-2.0803-1.6916-3.7727-3.7709-3.7727
	c-0.5674,0-1.1005,0.135-1.5836,0.3606c-0.1895-1.127-0.3478-2.2773-0.4674-3.4514h36.6406
	c-0.1196,1.1741-0.2778,2.3244-0.4674,3.4514c-0.4831-0.2255-1.0162-0.3606-1.5836-0.3606c-2.0794,0-3.771,1.6924-3.771,3.7727
	C63.9745,35.06,65.5699,36.6992,67.5632,36.7966z M47.1121,33.042c0-2.0803-1.6916-3.7727-3.7709-3.7727
	c-2.0794,0-3.7709,1.6924-3.7709,3.7727c0,2.0804,1.6915,3.773,3.7709,3.773C45.4206,36.815,47.1121,35.1224,47.1121,33.042z
	 M55.2467,33.042c0-2.0803-1.6916-3.7727-3.771-3.7727c-2.0794,0-3.7709,1.6924-3.7709,3.7727c0,2.0804,1.6916,3.773,3.7709,3.773
	C53.5552,36.815,55.2467,35.1224,55.2467,33.042z M63.3818,33.042c0-2.0803-1.6916-3.7727-3.771-3.7727
	c-2.0794,0-3.7709,1.6924-3.7709,3.7727c0,2.0804,1.6916,3.773,3.7709,3.773C61.6902,36.815,63.3818,35.1224,63.3818,33.042z
	 M43.3413,30.7212L43.3413,30.7212c-1.2793,0-2.3198,1.0412-2.3198,2.3208c0,1.2798,1.0405,2.3211,2.3197,2.3211h0.0001
	c1.2792,0,2.3197-1.0412,2.3197-2.3211C45.6609,31.7625,44.6205,30.7212,43.3413,30.7212z"/>
<path class="st1" d="M131.5144,80.9971l-14.2037-14.0706c-2.0394-1.9704-3.094-4.3625-3.094-7.386v-5.2079
	c0-4.3604,2.9542-7.386,7.3824-7.386h11.5332c4.4303,0,7.4523,3.0256,7.4523,7.386v7.6699h-8.7886v-6.5427
	c0-0.2119-0.1398-0.2818-0.2817-0.2818h-8.2274c-0.2097,0-0.2795,0.0699-0.2795,0.2818v4.8541c0,0.2818,0.0699,0.4216,0.2795,0.6335
	l14.2037,14.0685c1.9695,1.9704,3.094,4.3625,3.094,7.3881v6.6126c0,4.4324-3.022,7.4559-7.4523,7.4559h-11.5332
	c-4.4282,0-7.3824-3.0235-7.3824-7.4559v-7.6678h8.7907v6.6126c0,0.1398,0.0699,0.2818,0.2795,0.2818h8.2274
	c0.1419,0,0.2817-0.142,0.2817-0.2818v-6.3308C131.796,81.3488,131.6562,81.2068,131.5144,80.9971z"/>
<path class="st1" d="M165.7646,77.1282h-10.1249v19.2044h-8.7908V47.0886h18.9157c4.4303,0,7.4523,3.0235,7.4523,7.386v15.2656
	C173.2169,74.1027,170.2648,77.1282,165.7646,77.1282z M164.1466,55.178h-8.507v13.8588h8.507c0.1419,0,0.2817-0.0699,0.2817-0.2818
	V55.4597C164.4283,55.2479,164.2885,55.178,164.1466,55.178z"/>
<path class="st1" d="M197.554,96.4725h-11.5332c-4.3583,0-7.3824-3.0235-7.3824-7.4559v-34.684c0-4.3604,3.0241-7.386,7.3824-7.386
	h11.5332c4.4303,0,7.4523,3.0256,7.4523,7.386v34.684C205.0063,93.449,201.9843,96.4725,197.554,96.4725z M195.9361,55.178h-8.2274
	c-0.2097,0-0.2795,0.0699-0.2795,0.2818v32.5017c0,0.1398,0.0699,0.2818,0.2795,0.2818h8.2274c0.1419,0,0.2817-0.142,0.2817-0.2818
	V55.4597C196.2177,55.2479,196.0779,55.178,195.9361,55.178z"/>
<path class="st1" d="M229.1316,96.3326l-4.9936-19.2044h-4.0766v19.2044h-8.7907V47.0886h18.9157
	c4.4303,0,7.4523,3.0235,7.4523,7.386v15.2656c0,3.5892-1.9674,6.2609-5.2033,7.1063l5.9064,19.4862H229.1316z M220.0614,69.0367
	h8.507c0.1419,0,0.2817-0.0699,0.2817-0.2818V55.4597c0-0.2119-0.1398-0.2818-0.2817-0.2818h-8.507V69.0367z"/>
<path class="st1" d="M259.7245,55.178v41.1547h-8.7907V55.178h-8.7886v-8.0894h26.368v8.0894H259.7245z"/>
<path class="st1" d="M290.3153,80.9971l-14.2037-14.0706c-2.0394-1.9704-3.094-4.3625-3.094-7.386v-5.2079
	c0-4.3604,2.9543-7.386,7.3824-7.386h11.5332c4.4303,0,7.4523,3.0256,7.4523,7.386v7.6699h-8.7886v-6.5427
	c0-0.2119-0.1398-0.2818-0.2816-0.2818h-8.2274c-0.2097,0-0.2795,0.0699-0.2795,0.2818v4.8541c0,0.2818,0.0699,0.4216,0.2795,0.6335
	l14.2037,14.0685c1.9695,1.9704,3.094,4.3625,3.094,7.3881v6.6126c0,4.4324-3.022,7.4559-7.4523,7.4559H280.4
	c-4.4282,0-7.3824-3.0235-7.3824-7.4559v-7.6678h8.7907v6.6126c0,0.1398,0.0699,0.2818,0.2795,0.2818h8.2274
	c0.1419,0,0.2816-0.142,0.2816-0.2818v-6.3308C290.597,81.3488,290.4572,81.2068,290.3153,80.9971z"/>
<path class="st1" d="M324.6354,96.3326h-18.9156V47.0886h18.9156c4.4303,0,7.4544,3.0235,7.4544,7.386V64.956
	c0,3.0256-1.2664,4.9261-3.5175,5.6994v0.1398c2.2512,0.7034,3.5175,2.6739,3.5175,5.6994v12.3799
	C332.0898,93.307,329.0657,96.3326,324.6354,96.3326z M323.2991,66.5747v-11.115c0-0.2119-0.1398-0.2818-0.2816-0.2818h-8.507
	v11.6786h8.507C323.1593,66.8565,323.2991,66.7866,323.2991,66.5747z M323.2991,87.9614V74.876
	c0-0.1398-0.1398-0.2818-0.2816-0.2818h-8.507v13.649h8.507C323.1593,88.2432,323.2991,88.1013,323.2991,87.9614z"/>
<path class="st1" d="M357.2677,96.4725h-11.5332c-4.3583,0-7.3824-3.0235-7.3824-7.4559v-34.684c0-4.3604,3.0241-7.386,7.3824-7.386
	h11.5332c4.4303,0,7.4523,3.0256,7.4523,7.386v34.684C364.72,93.449,361.698,96.4725,357.2677,96.4725z M355.6497,55.178h-8.2274
	c-0.2097,0-0.2795,0.0699-0.2795,0.2818v32.5017c0,0.1398,0.0699,0.2818,0.2795,0.2818h8.2274c0.1419,0,0.2817-0.142,0.2817-0.2818
	V55.4597C355.9314,55.2479,355.7916,55.178,355.6497,55.178z"/>
<path class="st1" d="M389.8999,96.4725h-11.5332c-4.3583,0-7.3824-3.0235-7.3824-7.4559v-34.684c0-4.3604,3.0241-7.386,7.3824-7.386
	h11.5332c4.4303,0,7.4523,3.0256,7.4523,7.386v34.684C397.3523,93.449,394.3303,96.4725,389.8999,96.4725z M388.282,55.178h-8.2274
	c-0.2097,0-0.2795,0.0699-0.2795,0.2818v32.5017c0,0.1398,0.0699,0.2818,0.2795,0.2818h8.2274c0.1419,0,0.2817-0.142,0.2817-0.2818
	V55.4597C388.5637,55.2479,388.4239,55.178,388.282,55.178z"/>
<path class="st1" d="M423.6567,96.3326l-7.4523-18.3611l-3.7971,7.5978v10.7633h-8.7907V47.0886h8.7907v22.7215l11.0377-22.7215
	h9.2122L421.899,68.685L433.5,96.3326H423.6567z"/>
<path class="st0" d="M129.8071,8.712c-1.8334,0-3.5082,0.4517-5.0245,1.355c-1.5163,0.9033-2.7018,2.1342-3.5564,3.6926
	c-0.8547,1.5584-1.282,3.2616-1.282,5.1096c0,2.8824,0.9718,5.2993,2.9155,7.2507c1.9436,1.9515,4.3421,2.9272,7.1956,2.9272
	c1.8058,0,3.4186-0.3793,4.8384-1.1378s2.6053-1.7515,3.5564-2.9789l3.9286,3.5168c-1.3647,1.7377-3.1222,3.1168-5.2726,4.1374
	c-2.1504,1.0205-4.542,1.5308-7.1749,1.5308c-2.2607,0-4.3732-0.3965-6.3375-1.1895c-1.9643-0.793-3.6288-1.8722-4.9935-3.2375
	s-2.4364-2.9823-3.2153-4.8511c-0.7788-1.8687-1.1682-3.8581-1.1682-5.9681s0.386-4.0994,1.1579-5.9681
	c0.7719-1.8687,1.8368-3.4857,3.1946-4.8511c1.3578-1.3653,3.0119-2.4445,4.9625-3.2375s4.0561-1.1895,6.3168-1.1895
	c2.1504,0,4.1492,0.3724,5.9963,1.1171s3.4599,1.786,4.8384,3.1237l-3.6805,3.8891C134.9763,9.7257,132.5778,8.712,129.8071,8.712z"
	/>
<path class="st0" d="M150.0498,33.7016h-5.9756l12.6956-29.6649h4.032l12.6956,29.6649h-5.9549l-2.8121-6.5577h-11.8892
	L150.0498,33.7016z M158.7754,13.2838l-3.7839,8.7712h7.5471L158.7754,13.2838z"/>
<path class="st0" d="M194.6705,9.1257h-12.0753v6.144h9.1185v5.089h-9.1185v8.254h12.4888v5.0889h-18.1957V4.0368h17.7822V9.1257z"
	/>
<path class="st0" d="M197.8341,29.6677l3.7425-3.8891c0.8822,0.9792,1.9402,1.7687,3.1739,2.3686
	c1.2337,0.5999,2.5054,0.8999,3.8149,0.8999c1.2682,0,2.3055-0.3551,3.1119-1.0654c0.8064-0.7102,1.2096-1.6032,1.2096-2.6789
	c0-0.7171-0.193-1.3515-0.5789-1.9032c-0.386-0.5516-0.9339-1.0205-1.6438-1.4067c-0.7099-0.3862-1.437-0.7275-2.1814-1.024
	s-1.6094-0.6516-2.595-1.0654s-1.8161-0.8137-2.4916-1.1998c-2.7983-1.6412-4.1974-3.8891-4.1974-6.7439
	c0-1.2826,0.2791-2.4583,0.8374-3.5271c0.5583-1.0688,1.2957-1.948,2.2124-2.6376c0.9167-0.6896,1.9574-1.224,3.1222-1.6032
	s2.3675-0.5689,3.6081-0.5689c3.2256,0,6.0928,0.9309,8.6016,2.7927l-2.9775,4.2408c-0.6065-0.5654-1.375-1.0309-2.3055-1.3964
	c-0.9305-0.3655-1.8644-0.5482-2.8017-0.5482c-0.5652,0-1.1097,0.0621-1.6335,0.1862c-0.5238,0.1241-1.0097,0.3069-1.4577,0.5482
	c-0.448,0.2413-0.8098,0.5758-1.0855,1.0033c-0.2757,0.4275-0.4135,0.9171-0.4135,1.4688c0,0.5654,0.1964,1.0792,0.5893,1.5412
	c0.3929,0.462,0.9098,0.8447,1.5508,1.1481c0.641,0.3034,1.3716,0.6309,2.1917,0.9826c0.8202,0.3517,1.6576,0.693,2.5123,1.024
	s1.6921,0.7551,2.5122,1.2722c0.8202,0.5172,1.5508,1.0861,2.1918,1.7067c0.641,0.6206,1.1579,1.4136,1.5508,2.379
	c0.3929,0.9654,0.5893,2.048,0.5893,3.2478c0,1.6963-0.4652,3.234-1.3957,4.6132s-2.1573,2.4376-3.6805,3.1754
	c-1.5232,0.7378-3.1739,1.1067-4.9521,1.1067C204.6368,34.1154,201.0597,32.6328,197.8341,29.6677z"/>
<path class="st0" d="M226.2442,33.7016h-5.9756l12.6956-29.6649h4.032l12.6956,29.6649h-5.955l-2.8121-6.5577h-11.8892
	L226.2442,33.7016z M234.9698,13.2838l-3.7839,8.7712h7.5471L234.9698,13.2838z"/>
<path class="st0" d="M260.878,20.5655h-2.0883v13.1361h-5.7068V4.0368h10.7934c2.7018,0,4.8591,0.7378,6.4719,2.2135
	c0.8271,0.7861,1.4715,1.6998,1.9333,2.741c0.4618,1.0412,0.6927,2.148,0.6927,3.3202s-0.2309,2.279-0.6927,3.3202
	c-0.4618,1.0412-1.1062,1.9549-1.9333,2.741c-0.8409,0.7999-1.8264,1.3791-2.9568,1.7377l11.1035,13.5912h-7.0715L260.878,20.5655z
	 M258.7897,15.4766h4.7557c1.3647,0,2.3227-0.2965,2.8741-0.8895c0.5652-0.6068,0.8478-1.3515,0.8478-2.2342
	c0-0.924-0.2826-1.6894-0.8478-2.2962c-0.5789-0.6206-1.537-0.9309-2.8741-0.9309h-4.7557V15.4766z"/>
<path class="st0" d="M279.1151,29.6677l3.7425-3.8891c0.8822,0.9792,1.9402,1.7687,3.1739,2.3686
	c1.2337,0.5999,2.5054,0.8999,3.8149,0.8999c1.2682,0,2.3055-0.3551,3.1119-1.0654c0.8064-0.7102,1.2096-1.6032,1.2096-2.6789
	c0-0.7171-0.193-1.3515-0.5789-1.9032c-0.386-0.5516-0.9339-1.0205-1.6438-1.4067c-0.7099-0.3862-1.437-0.7275-2.1814-1.024
	c-0.7444-0.2965-1.6093-0.6516-2.5949-1.0654s-1.8161-0.8137-2.4916-1.1998c-2.7983-1.6412-4.1974-3.8891-4.1974-6.7439
	c0-1.2826,0.2791-2.4583,0.8374-3.5271s1.2957-1.948,2.2124-2.6376c0.9167-0.6896,1.9574-1.224,3.1222-1.6032
	c1.1648-0.3793,2.3675-0.5689,3.6081-0.5689c3.2256,0,6.0928,0.9309,8.6016,2.7927l-2.9775,4.2408
	c-0.6065-0.5654-1.375-1.0309-2.3055-1.3964c-0.9305-0.3655-1.8644-0.5482-2.8017-0.5482c-0.5652,0-1.1096,0.0621-1.6335,0.1862
	c-0.5238,0.1241-1.0097,0.3069-1.4577,0.5482c-0.448,0.2413-0.8098,0.5758-1.0855,1.0033
	c-0.2757,0.4275-0.4135,0.9171-0.4135,1.4688c0,0.5654,0.1964,1.0792,0.5893,1.5412c0.3929,0.462,0.9098,0.8447,1.5508,1.1481
	c0.641,0.3034,1.3716,0.6309,2.1918,0.9826c0.8202,0.3517,1.6576,0.693,2.5122,1.024s1.692,0.7551,2.5122,1.2722
	s1.5508,1.0861,2.1918,1.7067c0.641,0.6206,1.1579,1.4136,1.5508,2.379c0.3929,0.9654,0.5893,2.048,0.5893,3.2478
	c0,1.6963-0.4652,3.234-1.3957,4.6132s-2.1573,2.4376-3.6805,3.1754c-1.5232,0.7378-3.1739,1.1067-4.9521,1.1067
	C285.9178,34.1154,282.3407,32.6328,279.1151,29.6677z"/>
</svg>
